PathFileType	4	(X/Y/Z)	C:\Users\Basilio\Documents\Thesis Gigler\squatting_fais\c3dfiles\076\SLS_front_pre4\markers_experimental.trc
DataRate	CameraRate	NumFrames	NumMarkers	Units	OrigDataRate	OrigDataStartFrame	OrigNumFrames
200.000000	200.000000	4	61	mm	200.000000	607	1621
Frame#	Time	FHD			LBHD			RBHD			C7			T10			CLAV			LSHO			LUUPA			LMUPA			LDUPA			LLEP			LMEP			LRAD			LUL			LRFIN			RSHO			RUPA1			RMUPA			RDUPA			RLEP			RMEP			RRAD			RUL			RUFIN			RASI			USACR			LSACR			RSACR			LTHI1			LTHI2			LTHI3			LTHI4			LLFC			LMFC			LTIB1			LTIB2			LTIB3			LTIB4			LLMAL			LMMAL			LHEE			LMT1			LMT2			LMT5			RTHI			RTHI2			RTHI3			RTHI4			RLFC			RMFC			RTIB1			RTIB2			RTIB3			RTIB4			RLMAL			RMMAL			RHEE			RMT1			RMT2			RMT5			LASI			
		X1	Y1	Z1	X2	Y2	Z2	X3	Y3	Z3	X4	Y4	Z4	X5	Y5	Z5	X6	Y6	Z6	X7	Y7	Z7	X8	Y8	Z8	X9	Y9	Z9	X10	Y10	Z10	X11	Y11	Z11	X12	Y12	Z12	X13	Y13	Z13	X14	Y14	Z14	X15	Y15	Z15	X16	Y16	Z16	X17	Y17	Z17	X18	Y18	Z18	X19	Y19	Z19	X20	Y20	Z20	X21	Y21	Z21	X22	Y22	Z22	X23	Y23	Z23	X24	Y24	Z24	X25	Y25	Z25	X26	Y26	Z26	X27	Y27	Z27	X28	Y28	Z28	X29	Y29	Z29	X30	Y30	Z30	X31	Y31	Z31	X32	Y32	Z32	X33	Y33	Z33	X34	Y34	Z34	X35	Y35	Z35	X36	Y36	Z36	X37	Y37	Z37	X38	Y38	Z38	X39	Y39	Z39	X40	Y40	Z40	X41	Y41	Z41	X42	Y42	Z42	X43	Y43	Z43	X44	Y44	Z44	X45	Y45	Z45	X46	Y46	Z46	X47	Y47	Z47	X48	Y48	Z48	X49	Y49	Z49	X50	Y50	Z50	X51	Y51	Z51	X52	Y52	Z52	X53	Y53	Z53	X54	Y54	Z54	X55	Y55	Z55	X56	Y56	Z56	X57	Y57	Z57	X58	Y58	Z58	X59	Y59	Z59	X60	Y60	Z60	X61	Y61	Z61	

608	3.035	-259.4407043457032	1602.6015625	-1019.57275390625	-396.5654602050782	1525.21728515625	-1112.5869140625	-379.8196411132813	1530.065063476563	-961.3413085937502	-434.3204650878907	1408.727783203125	-1033.330444335938	-497.3580322265626	1101.771728515625	-1044.84765625	-307.8834533691407	1330.064697265625	-1041.567749023438	-365.0289306640626	1360.395385742188	-1199.620849609375	-226.8354034423829	1305.678588867188	-1290.639282226563	-189.5457458496094	1321.587890625	-1261.059448242188	-163.0525665283203	1296.565795898438	-1310.076904296875	-114.9884185791016	1275.002563476563	-1326.106567382813	-105.5983047485352	1214.26220703125	-1274.819091796875	136.2073669433594	1291.790771484375	-1296.94921875	127.4018859863282	1291.030517578125	-1362.121948242188	217.1879272460938	1311.137329101563	-1309.049072265625	-349.3424987792969	1351.6826171875	-883.9707031250002	-215.4960021972657	1282.290893554688	-798.131286621094	-182.8545989990235	1314.266723632813	-816.4935302734377	-146.2598114013672	1271.656494140625	-792.2962646484377	-79.3079299926758	1272.192016601563	-794.968200683594	-77.4657440185547	1224.913452148438	-854.921813964844	165.1510162353516	1275.068725585938	-843.3887939453127	155.4649200439453	1271.272827148438	-777.3413696289065	242.1302337646485	1289.32958984375	-829.2075195312502	-354.2397460937501	927.668884277344	-924.8809204101565	-513.7053833007814	986.5042724609377	-1038.794189453125	-519.0322265625001	955.8271484375002	-1065.986206054688	-525.0805664062501	958.3650512695315	-1008.601196289063	-387.082489013672	752.3394775390626	-1201.70458984375	-333.3369140625001	686.6852416992189	-1196.595947265625	-286.9110717773438	703.6312866210939	-1185.291015625	-344.5052490234376	628.3591918945314	-1179.374877929688	-293.7868041992188	482.0322570800782	-1143.062133789063	-270.5814514160157	493.6278686523439	-1028.736450195313	-274.1417541503907	345.1708068847657	-1053.18212890625	-301.9212951660157	285.3008117675782	-1113.111450195313	-274.4247131347657	290.3971557617188	-1074.103637695313	-304.4498596191407	223.8617248535157	-1032.838745117188	-380.7336730957032	106.0586624145508	-1072.14990234375	-354.8644714355469	122.4178924560547	-992.6525878906252	-440.9033508300782	96.172233581543	-1024.526123046875	-239.6472930908204	51.97058486938478	-1004.270141601563	-233.5961914062501	49.29305648803712	-1042.982666015625	-257.7510375976563	43.69742584228516	-1093.311889648438	-303.9220581054688	711.9531860351564	-853.0498046875002	-239.6539459228516	696.4990844726564	-864.3031005859377	-218.6563262939454	719.5173950195314	-878.0025634765627	-209.3810119628907	619.5760498046876	-876.5413208007815	-173.49560546875	570.7202148437501	-883.1317138671877	-162.1278076171875	574.2725830078126	-999.119812011719	-57.72007369995119	490.5333557128907	-903.8875122070315	-58.31285095214845	385.8921508789064	-873.0329589843752	-22.47113990783692	412.3703918457032	-886.820983886719	15.70841979980469	384.720672607422	-920.601501464844	63.2501564025879	237.2404174804688	-884.251892089844	65.53182220458986	260.7948608398438	-966.5236816406252	37.47349548339844	178.7570343017578	-923.093688964844	202.8082733154297	298.8898010253907	-961.035827636719	203.3454895019532	311.7273254394532	-916.272644042969	196.6515808105469	283.4803466796876	-861.0691528320315	-343.7397155761719	913.815612792969	-1138.842407226563	
609	3.04	-259.4158630371094	1601.716674804688	-1019.628662109375	-396.9989013671876	1523.28076171875	-1112.374267578125	-379.7849426269532	1529.1201171875	-961.363220214844	-434.3613281250001	1407.818359375	-1033.283447265625	-497.7503051757814	1101.02587890625	-1044.800048828125	-307.9814758300782	1329.067993164063	-1041.522827148438	-364.9592285156251	1359.458129882813	-1199.43115234375	-227.0229187011719	1304.928588867188	-1290.603149414063	-189.6948547363282	1320.855590820313	-1260.992065429688	-163.0169525146485	1295.811279296875	-1309.95458984375	-115.0727310180664	1274.261596679688	-1326.080444335938	-105.9963607788086	1213.496215820313	-1274.728637695313	136.1828155517578	1291.18017578125	-1296.9599609375	127.3055572509766	1290.298950195313	-1361.985107421875	217.1999664306641	1310.5	-1309.036499023438	-349.3500671386719	1350.755004882813	-883.9338989257815	-215.3826446533204	1281.770385742188	-798.0137939453127	-182.7795715332032	1313.568237304688	-816.6402587890627	-146.2230529785157	1270.98046875	-792.335876464844	-79.33861541748048	1271.588500976563	-795.093200683594	-77.42951965332033	1224.344848632813	-854.9016113281252	165.2905426025391	1274.49560546875	-843.3752441406252	155.4672088623047	1270.770751953125	-777.263366699219	242.1177062988282	1288.665283203125	-829.2959594726565	-354.8834533691407	926.9851074218752	-925.0932617187502	-514.3499755859376	985.7319946289065	-1038.84033203125	-519.6846923828126	955.0803833007815	-1066.041625976563	-525.6380004882814	957.6419067382815	-1008.606384277344	-387.2444152832032	751.5114746093751	-1201.697875976563	-333.2783203125001	686.1646118164064	-1196.58544921875	-286.8134155273438	703.2603759765626	-1185.047729492188	-344.2096252441407	627.7218627929689	-1179.482543945313	-292.7517089843751	481.5380249023439	-1142.878173828125	-270.1076660156251	493.3305664062501	-1028.62060546875	-273.6776428222657	344.9622192382813	-1052.941650390625	-301.5412597656251	285.0144348144532	-1112.880493164063	-274.0028686523438	290.1217041015626	-1073.791015625	-304.3249511718751	223.5154113769532	-1032.625366210938	-380.8336181640626	106.1357192993164	-1072.072631835938	-354.9171142578126	122.2886505126953	-992.466491699219	-441.0722045898439	96.19391632080081	-1024.542114257813	-239.6456604003907	51.91382980346681	-1004.229675292969	-233.5506286621094	49.35530090332033	-1042.915405273438	-257.6822509765626	43.76347732543946	-1093.232543945313	-303.8918762207032	711.6347045898439	-853.1833496093752	-239.6399688720704	696.4129638671876	-864.627136230469	-218.7375183105469	719.5203247070314	-878.4644165039065	-209.015853881836	619.6915893554689	-876.818298339844	-173.0286865234375	570.8601684570314	-883.4722290039065	-162.0125274658203	574.3106689453126	-999.3995361328127	-56.92597961425783	491.246307373047	-904.2495727539065	-56.97157669067384	386.7002563476564	-873.2609863281252	-21.34857559204102	413.1175231933595	-887.257995605469	16.88433837890625	385.6965942382814	-921.127868652344	64.8309783935547	238.4253234863282	-884.7666625976565	67.13906097412111	261.6603698730469	-966.963073730469	39.45397949218751	179.5664367675782	-923.4932250976565	204.0064086914063	300.5635681152344	-961.6245727539065	204.5533905029297	313.6618347167969	-916.8070068359377	197.9575500488282	285.4307861328126	-861.7334594726565	-344.5738220214844	913.0664672851565	-1139.002319335938	
610	3.045	-259.4107666015626	1600.711791992188	-1019.607482910156	-396.901092529297	1522.24609375	-1112.421997070313	-379.8250122070313	1528.22900390625	-961.4099121093752	-434.4835815429689	1406.880249023438	-1033.270141601563	-498.1644592285157	1100.118286132813	-1044.778076171875	-308.0543212890626	1328.012084960938	-1041.480224609375	-365.0904541015626	1358.496826171875	-1199.397705078125	-227.3568725585938	1304.168090820313	-1290.465942382813	-190.000717163086	1320.108276367188	-1260.94677734375	-163.3698120117188	1295.067749023438	-1309.968383789063	-115.0992050170899	1273.626708984375	-1325.97705078125	-105.8286056518555	1212.830322265625	-1274.606811523438	136.0649108886719	1290.584350585938	-1296.91552734375	127.3367004394532	1289.537353515625	-1361.84228515625	217.095443725586	1309.818725585938	-1308.998046875	-349.3298950195313	1349.76708984375	-883.8892822265627	-215.4111785888672	1280.931884765625	-798.0654907226565	-182.7687225341797	1312.86669921875	-816.662780761719	-146.1963653564453	1270.322021484375	-792.3204345703127	-79.29959106445314	1270.979614257813	-795.0149536132815	-77.39099121093751	1223.81494140625	-854.892517089844	165.3402252197266	1273.946044921875	-843.303405761719	155.4512023925782	1270.26806640625	-777.301208496094	242.1842346191407	1287.99853515625	-829.3206787109377	-355.4026184082032	926.2917480468752	-925.1777954101565	-515.1427612304689	984.9466552734377	-1038.857421875	-520.3010253906251	954.330017089844	-1065.977905273438	-526.3018188476564	956.8243408203127	-1008.575805664063	-387.2329711914064	750.5540161132814	-1201.531005859375	-333.1474914550782	685.6677246093751	-1196.53955078125	-286.8605346679688	702.7993164062501	-1184.83203125	-344.8083801269532	627.4205322265626	-1179.636474609375	-291.9008178710938	481.1763610839845	-1142.709106445313	-269.7767944335938	493.047332763672	-1028.3916015625	-273.4398498535157	344.7544250488282	-1052.686645507813	-301.2750854492188	284.6881408691407	-1112.2158203125	-273.6894226074219	289.7283935546876	-1073.645263671875	-304.0867004394532	223.2698516845704	-1032.395263671875	-380.7432556152344	106.1156997680664	-1071.968139648438	-354.9395751953126	122.1994552612305	-992.2630004882815	-441.0788879394532	96.14356231689456	-1024.467163085938	-239.6354675292969	51.87739944458009	-1004.138061523438	-233.5945434570313	49.3847122192383	-1042.859130859375	-257.8020019531251	43.77851867675782	-1093.187377929688	-303.9262695312501	711.2766113281251	-853.4016113281252	-239.6018371582032	696.4028320312501	-864.943786621094	-218.837631225586	719.5922241210939	-878.904235839844	-208.7144165039063	619.7652587890626	-877.032165527344	-172.4772186279297	571.1284790039064	-883.7332153320315	-161.8802337646485	574.4013671875001	-999.8380126953127	-56.20223999023439	491.7918701171876	-904.8385009765627	-55.86603164672853	387.1695861816407	-873.613952636719	-20.21920013427735	413.9096069335939	-887.6674804687502	17.98883247375489	386.5845031738282	-921.7443847656252	66.61646270751955	239.5151062011719	-885.1572265625002	68.71685028076173	262.5865173339844	-967.3679809570315	41.59304809570313	180.5037994384766	-923.7734985351565	205.7232666015626	302.3300781250001	-962.372741699219	205.7190704345704	315.5156555175782	-917.399597167969	199.4094848632813	287.3431396484376	-862.1577148437502	-345.4606628417969	912.2749633789065	-1139.148315429688	
611	3.05	-259.3934936523438	1599.647583007813	-1019.674255371094	-397.0041503906251	1521.2734375	-1112.408935546875	-379.8631286621094	1527.29736328125	-961.2763671875002	-434.6358032226564	1405.756591796875	-1033.194702148438	-498.6612548828126	1099.32763671875	-1044.788818359375	-308.1727905273438	1327.055541992188	-1041.435424804688	-365.2956542968751	1357.55712890625	-1199.387084960938	-227.5639648437501	1303.39111328125	-1290.460327148438	-190.0932159423828	1319.259887695313	-1260.810913085938	-163.4004974365235	1294.252197265625	-1309.822265625	-115.1083526611328	1272.868774414063	-1325.803955078125	-106.0103988647461	1212.125122070313	-1274.62939453125	135.9923400878907	1289.917724609375	-1296.829345703125	127.2539672851563	1288.970458984375	-1361.89013671875	217.352523803711	1309.040283203125	-1308.811279296875	-349.5198974609376	1348.855346679688	-883.9492187500002	-215.4208221435547	1280.35595703125	-798.0723876953127	-182.8448486328125	1312.112548828125	-816.7266235351565	-146.1741638183594	1269.614990234375	-792.2744140625002	-79.25836181640626	1270.245239257813	-795.0750122070315	-77.38355255126955	1223.1220703125	-855.0964355468752	165.357650756836	1273.578247070313	-843.325622558594	155.4937286376953	1269.760131835938	-777.2844238281252	242.2358703613282	1287.40185546875	-829.3121337890627	-356.1611328125001	925.3279418945315	-925.3802490234377	-515.7857055664064	984.0894165039065	-1038.90771484375	-520.8391113281251	953.350524902344	-1065.920043945313	-527.1118774414064	955.9895019531252	-1008.645874023438	-387.1853637695314	749.5850830078126	-1201.248291015625	-332.9561767578126	685.0733032226564	-1196.33544921875	-286.7959289550782	702.3914794921876	-1184.48779296875	-343.2833862304688	626.5454711914064	-1179.358154296875	-291.2538757324219	480.9413146972657	-1142.523559570313	-269.5364379882813	492.705047607422	-1028.21435546875	-272.8816223144532	344.4455566406251	-1052.31005859375	-301.1512756347657	284.5699768066407	-1111.696899414063	-273.2213745117188	289.5482482910157	-1073.343505859375	-303.8823852539063	223.1193542480469	-1032.115600585938	-380.6602783203126	106.1260070800782	-1071.871826171875	-354.9987792968751	122.0687103271485	-992.1252441406252	-441.099090576172	96.15338134765628	-1024.412841796875	-239.6756744384766	51.80845642089845	-1004.118896484375	-233.5715637207032	49.39604949951173	-1042.800415039063	-257.7408447265626	43.85198974609376	-1093.16357421875	-303.8801269531251	710.9796142578126	-853.639831542969	-239.652572631836	696.2541503906251	-865.2735595703127	-218.8580780029297	719.6895751953126	-879.2793579101565	-208.4204406738282	619.7205810546876	-877.417175292969	-171.9851379394532	571.3843994140626	-883.982360839844	-161.5738525390625	574.4636840820314	-1000.161254882813	-55.51661300659181	492.5054931640626	-905.3918457031252	-54.52410125732423	387.8753356933595	-874.051452636719	-19.06964302062989	414.6735229492189	-888.0598144531252	19.07368087768555	387.3721618652345	-922.3135986328127	68.30256652832033	240.6739349365235	-885.4224243164065	69.8262405395508	263.7081298828126	-967.841735839844	43.54568481445313	181.384506225586	-924.1057128906252	206.763168334961	303.7719116210938	-962.8100585937502	206.6150970458985	317.4117126464844	-917.8936157226565	200.8797607421876	289.2980957031251	-862.595153808594	-346.2353210449219	911.5938110351565	-1139.28466796875	
